<svg width="771" height="415" viewBox="0 0 771 415" fill="none" xmlns="http://www.w3.org/2000/svg">
<path fill-rule="evenodd" clip-rule="evenodd" d="M251.563 2.31306C247.799 0.137605 243.16 0.136113 239.394 2.30915C235.629 4.48218 233.309 8.49946 233.309 12.8471V228.198C233.309 232.099 235.179 235.763 238.337 238.051C241.496 240.339 245.56 240.975 249.266 239.759L383.203 195.839V307.123L257.642 380.707V314.095C257.642 307.376 252.195 301.928 245.475 301.928C238.756 301.928 233.309 307.376 233.309 314.095V401.939C233.309 406.3 235.643 410.327 239.426 412.495C243.21 414.664 247.865 414.641 251.627 412.436L401.521 324.592C405.247 322.409 407.536 318.414 407.536 314.095V179.045C407.536 175.144 405.666 171.48 402.507 169.192C399.349 166.903 395.285 166.268 391.578 167.484L257.642 211.404V33.931L383.203 106.495V129.891C383.203 136.611 388.65 142.058 395.369 142.058C402.089 142.058 407.536 136.611 407.536 129.891V99.4742C407.536 95.1293 405.219 91.1142 401.457 88.9401L251.563 2.31306ZM435.578 107.222C431.816 105.021 427.163 105.002 423.382 107.171C419.601 109.34 417.27 113.365 417.27 117.724V295.359C417.27 299.713 419.597 303.736 423.372 305.906C427.148 308.077 431.795 308.064 435.559 305.873L531.676 249.906C535.418 247.727 537.72 243.722 537.72 239.392V227.712C537.72 220.992 532.273 215.545 525.553 215.545C518.834 215.545 513.387 220.992 513.387 227.712V232.397L441.603 274.195V138.934L513.387 180.914V189.995C513.387 196.714 518.834 202.161 525.553 202.161C532.273 202.161 537.72 196.714 537.72 189.995V173.935C537.72 169.612 535.427 165.614 531.696 163.432L435.578 107.222Z" fill="url(#paint0_linear_114_113)"/>
<path d="M631 277.431L751.5 208.182L631 137" stroke="white" stroke-width="38" stroke-linecap="round" stroke-linejoin="round"/>
<path d="M139.5 137L19 206.249L139.5 277.431" stroke="white" stroke-width="38" stroke-linecap="round" stroke-linejoin="round"/>
<defs>
<linearGradient id="paint0_linear_114_113" x1="242.821" y1="207.393" x2="528.588" y2="207.393" gradientUnits="userSpaceOnUse">
<stop offset="0.0132222" stop-color="#0047FF"/>
<stop offset="0.476857" stop-color="#8067C2"/>
<stop offset="0.859375" stop-color="#EB418F"/>
</linearGradient>
</defs>
</svg>
