<svg width="356" height="250" viewBox="0 0 356 250" fill="none" xmlns="http://www.w3.org/2000/svg">
<path d="M118.406 134.652L59.2031 177.7L118.406 212.672" stroke="#0047FF" stroke-width="18.6699" stroke-linecap="round" stroke-linejoin="round"/>
<path d="M30.804 106.671C25.8808 106.671 21.4692 105.872 17.5691 104.274C13.669 102.675 10.5361 100.31 8.1704 97.1768C5.86869 94.0439 4.65389 90.2716 4.52602 85.86H21.9807C22.2365 88.3535 23.0996 90.2716 24.5701 91.6143C26.0407 92.893 27.9588 93.5324 30.3244 93.5324C32.754 93.5324 34.6721 92.9889 36.0787 91.902C37.4853 90.7511 38.1886 89.1847 38.1886 87.2026C38.1886 85.5403 37.6132 84.1657 36.4623 83.0787C35.3754 81.9918 34.0008 81.0967 32.3384 80.3934C30.74 79.6901 28.4383 78.8909 25.4333 77.9958C21.0856 76.6531 17.5371 75.3104 14.7878 73.9678C12.0386 72.6251 9.67291 70.6431 7.69088 68.0217C5.70885 65.4003 4.71783 61.9797 4.71783 57.7598C4.71783 51.4941 6.98758 46.6029 11.5271 43.0864C16.0666 39.506 21.9807 37.7157 29.2695 37.7157C36.6861 37.7157 42.6642 39.506 47.2037 43.0864C51.7432 46.6029 54.1728 51.526 54.4925 57.8558H36.7501C36.6222 55.6819 35.823 53.9876 34.3524 52.7728C32.8819 51.4941 30.9958 50.8547 28.694 50.8547C26.712 50.8547 25.1136 51.3982 23.8988 52.4851C22.684 53.5081 22.0766 55.0106 22.0766 56.9926C22.0766 59.1665 23.0996 60.8608 25.1456 62.0756C27.1915 63.2904 30.3884 64.6011 34.7361 66.0077C39.0837 67.4782 42.6003 68.8848 45.2856 70.2275C48.0349 71.5701 50.4005 73.5202 52.3825 76.0777C54.3646 78.6351 55.3556 81.9279 55.3556 85.9559C55.3556 89.7921 54.3646 93.2766 52.3825 96.4095C50.4645 99.5424 47.6512 102.036 43.9429 103.89C40.2346 105.744 35.8549 106.671 30.804 106.671Z" fill="white"/>
<path d="M290.017 106L267.384 76.2695V106H250.984V38.6748H267.384V68.2135L289.826 38.6748H309.103L283.016 71.6661L310.062 106H290.017Z" fill="white"/>
<path d="M137.877 43.5728C139.267 41.1661 142.74 41.1661 144.13 43.5728L175.393 97.7221C176.783 100.129 175.046 103.137 172.267 103.137H109.74C106.961 103.137 105.225 100.129 106.614 97.7221L137.877 43.5728Z" fill="#EB418F"/>
<path d="M166.604 212.082C160.274 212.082 154.456 210.611 149.149 207.67C143.907 204.729 139.719 200.637 136.586 195.395C133.517 190.088 131.983 184.142 131.983 177.556C131.983 170.971 133.517 165.057 136.586 159.814C139.719 154.571 143.907 150.479 149.149 147.538C154.456 144.597 160.274 143.126 166.604 143.126C172.934 143.126 178.72 144.597 183.963 147.538C189.27 150.479 193.426 154.571 196.431 159.814C199.5 165.057 201.034 170.971 201.034 177.556C201.034 184.142 199.5 190.088 196.431 195.395C193.362 200.637 189.206 204.729 183.963 207.67C178.72 210.611 172.934 212.082 166.604 212.082ZM166.604 197.121C171.975 197.121 176.259 195.331 179.455 191.75C182.716 188.17 184.347 183.438 184.347 177.556C184.347 171.61 182.716 166.879 179.455 163.362C176.259 159.782 171.975 157.992 166.604 157.992C161.17 157.992 156.822 159.75 153.561 163.266C150.364 166.783 148.766 171.546 148.766 177.556C148.766 183.502 150.364 188.266 153.561 191.846C156.822 195.363 161.17 197.121 166.604 197.121Z" fill="white"/>
<path d="M235.652 144.085C242.749 144.085 248.951 145.492 254.258 148.305C259.565 151.118 263.657 155.083 266.534 160.197C269.475 165.248 270.945 171.099 270.945 177.748C270.945 184.334 269.475 190.184 266.534 195.299C263.657 200.414 259.533 204.378 254.162 207.191C248.855 210.004 242.685 211.411 235.652 211.411H210.429V144.085H235.652ZM234.597 197.217C240.799 197.217 245.626 195.522 249.079 192.134C252.532 188.745 254.258 183.95 254.258 177.748C254.258 171.546 252.532 166.719 249.079 163.266C245.626 159.814 240.799 158.088 234.597 158.088H226.829V197.217H234.597Z" fill="white"/>
<path d="M286.63 150.896H348" stroke="#0047FF" stroke-width="14.4398" stroke-linecap="round" stroke-linejoin="round"/>
<path d="M286.63 175.444H348" stroke="#EB418F" stroke-width="14.4398" stroke-linecap="round" stroke-linejoin="round"/>
<path d="M286.63 199.27H348" stroke="#0047FF" stroke-width="14.4398" stroke-linecap="round" stroke-linejoin="round"/>
<path d="M175.349 72.2415C175.349 65.5921 176.788 59.6779 179.665 54.4991C182.542 49.2563 186.538 45.1963 191.653 42.3192C196.832 39.3781 202.682 37.9075 209.203 37.9075C217.196 37.9075 224.037 40.0174 229.727 44.2373C235.417 48.4571 239.222 54.2114 241.14 61.5001H223.11C221.767 58.6869 219.849 56.5451 217.355 55.0745C214.926 53.604 212.145 52.8687 209.012 52.8687C203.961 52.8687 199.869 54.627 196.736 58.1435C193.603 61.66 192.036 66.3593 192.036 72.2415C192.036 78.1236 193.603 82.823 196.736 86.3395C199.869 89.856 203.961 91.6143 209.012 91.6143C212.145 91.6143 214.926 90.879 217.355 89.4085C219.849 87.9379 221.767 85.796 223.11 82.9828H241.14C239.222 90.2716 235.417 96.0259 229.727 100.246C224.037 104.402 217.196 106.48 209.203 106.48C202.682 106.48 196.832 105.041 191.653 102.164C186.538 99.2227 182.542 95.1627 179.665 89.9839C176.788 84.805 175.349 78.8909 175.349 72.2415Z" fill="white"/>
<path d="M113.75 38.6748V51.8137H95.9116V106H79.5119V51.8137H61.6736V38.6748H113.75Z" fill="white"/>
</svg>
