<svg width="492" height="345" viewBox="0 0 492 345" fill="none" xmlns="http://www.w3.org/2000/svg">
<path d="M164 186.5L82 246.124L164 294.563" stroke="#0047FF" stroke-width="25.8589" stroke-linecap="round" stroke-linejoin="round"/>
<path d="M42.1135 146.93C35.2947 146.93 29.1844 145.823 23.7825 143.609C18.3805 141.395 14.0413 138.119 10.7647 133.779C7.57674 129.44 5.89417 124.215 5.71706 118.105H29.8928C30.247 121.559 31.4425 124.215 33.4793 126.075C35.5161 127.846 38.1728 128.732 41.4494 128.732C44.8145 128.732 47.4711 127.979 49.4194 126.473C51.3676 124.879 52.3417 122.71 52.3417 119.965C52.3417 117.662 51.5447 115.758 49.9507 114.253C48.4453 112.747 46.5413 111.507 44.2389 110.533C42.025 109.559 38.837 108.452 34.6748 107.213C28.653 105.353 23.7382 103.493 19.9303 101.634C16.1224 99.7738 12.8458 97.0286 10.1006 93.3978C7.35535 89.767 5.98273 85.0293 5.98273 79.1846C5.98273 70.5061 9.12646 63.7316 15.4139 58.861C21.7014 53.9019 29.8928 51.4223 39.9882 51.4223C50.2607 51.4223 58.5406 53.9019 64.8281 58.861C71.1156 63.7316 74.4807 70.5504 74.9235 79.3174H50.3492C50.1721 76.3065 49.0652 73.9598 47.0284 72.2772C44.9916 70.5061 42.3792 69.6206 39.1912 69.6206C36.4459 69.6206 34.232 70.3733 32.5495 71.8787C30.8669 73.2956 30.0256 75.3767 30.0256 78.1219C30.0256 81.1328 31.4425 83.4796 34.2763 85.1621C37.1101 86.8447 41.5379 88.6601 47.5597 90.6083C53.5815 92.6451 58.4521 94.5933 62.1714 96.453C65.9793 98.3127 69.2559 101.014 72.0011 104.556C74.7464 108.098 76.119 112.659 76.119 118.238C76.119 123.551 74.7464 128.377 72.0011 132.717C69.3444 137.056 65.448 140.51 60.3117 143.078C55.1755 145.646 49.1094 146.93 42.1135 146.93Z" fill="white"/>
<path d="M157.576 52.7507V70.9489H132.869V146H110.155V70.9489H85.4476V52.7507H157.576Z" fill="white"/>
<path d="M268.964 146L249.57 110.799H244.124V146H221.409V52.7507H259.532C266.882 52.7507 273.126 54.0347 278.262 56.6029C283.487 59.171 287.383 62.7132 289.951 67.2296C292.519 71.6574 293.803 76.6165 293.803 82.1069C293.803 88.3059 292.032 93.8406 288.49 98.7112C285.036 103.582 279.9 107.035 273.081 109.072L294.6 146H268.964ZM244.124 94.7262H258.204C262.366 94.7262 265.466 93.7078 267.502 91.671C269.628 89.6342 270.69 86.7561 270.69 83.0368C270.69 79.4945 269.628 76.705 267.502 74.6683C265.466 72.6315 262.366 71.6131 258.204 71.6131H244.124V94.7262Z" fill="white"/>
<path d="M375.576 52.7507V70.9489H350.869V146H328.155V70.9489H303.448V52.7507H375.576Z" fill="white"/>
<path d="M249.5 95.6699C252.833 97.5944 252.833 102.406 249.5 104.33L174.5 147.631C171.167 149.556 167 147.15 167 143.301V56.6987C167 52.8497 171.167 50.4441 174.5 52.3686L249.5 95.6699Z" fill="#EB418F"/>
<path d="M230.624 292.93C221.857 292.93 213.798 290.893 206.448 286.819C199.187 282.746 193.386 277.078 189.047 269.817C184.796 262.467 182.671 254.231 182.671 245.11C182.671 235.988 184.796 227.797 189.047 220.535C193.386 213.274 199.187 207.606 206.448 203.533C213.798 199.459 221.857 197.422 230.624 197.422C239.391 197.422 247.405 199.459 254.667 203.533C262.017 207.606 267.773 213.274 271.935 220.535C276.186 227.797 278.311 235.988 278.311 245.11C278.311 254.231 276.186 262.467 271.935 269.817C267.685 277.078 261.929 282.746 254.667 286.819C247.405 290.893 239.391 292.93 230.624 292.93ZM230.624 272.208C238.063 272.208 243.996 269.728 248.424 264.769C252.94 259.81 255.198 253.257 255.198 245.11C255.198 236.874 252.94 230.321 248.424 225.45C243.996 220.491 238.063 218.012 230.624 218.012C223.097 218.012 217.075 220.447 212.559 225.317C208.131 230.188 205.917 236.785 205.917 245.11C205.917 253.345 208.131 259.943 212.559 264.902C217.075 269.772 223.097 272.208 230.624 272.208Z" fill="white"/>
<path d="M326.415 198.751C336.245 198.751 344.835 200.699 352.185 204.595C359.535 208.492 365.202 213.982 369.187 221.067C373.261 228.063 375.298 236.166 375.298 245.375C375.298 254.497 373.261 262.599 369.187 269.684C365.202 276.768 359.491 282.259 352.052 286.155C344.702 290.052 336.156 292 326.415 292H291.48V198.751H326.415ZM324.954 272.341C333.544 272.341 340.23 269.994 345.012 265.3C349.794 260.607 352.185 253.965 352.185 245.375C352.185 236.785 349.794 230.099 345.012 225.317C340.23 220.535 333.544 218.144 324.954 218.144H314.194V272.341H324.954Z" fill="white"/>
<path d="M397 209H482" stroke="#0047FF" stroke-width="20" stroke-linecap="round" stroke-linejoin="round"/>
<path d="M397 243H482" stroke="#EB418F" stroke-width="20" stroke-linecap="round" stroke-linejoin="round"/>
<path d="M397 276H482" stroke="#0047FF" stroke-width="20" stroke-linecap="round" stroke-linejoin="round"/>
</svg>
